{
  "asset": {
    "version": "2.0",
    "generator": "THREE.GLTFExporter"
  },
  "scenes": [
    {
      "name": "AuxScene",
      "nodes": [
        15
      ]
    }
  ],
  "scene": 0,
  "nodes": [
    {
      "name": "mesh0",
      "mesh": 0
    },
    {
      "children": [
        0
      ]
    },
    {
      "matrix": [
        2.220446049250313e-16,
        0,
        -1,
        0,
        0,
        1,
        0,
        0,
        1,
        0,
        2.220446049250313e-16,
        0,
        254.963165,
        300.622681,
        993.952942,
        1
      ],
      "children": [
        1
      ]
    },
    {
      "name": "mesh1",
      "mesh": 1
    },
    {
      "children": [
        3
      ]
    },
    {
      "matrix": [
        2.220446049250313e-16,
        0,
        -1,
        0,
        0,
        1,
        0,
        0,
        1,
        0,
        2.220446049250313e-16,
        0,
        -345.036835,
        158.622665,
        993.952942,
        1
      ],
      "children": [
        4
      ]
    },
    {
      "name": "mesh2",
      "mesh": 2
    },
    {
      "children": [
        6
      ]
    },
    {
      "matrix": [
        2.220446049250313e-16,
        0,
        -1,
        0,
        0,
        1,
        0,
        0,
        1,
        0,
        2.220446049250313e-16,
        0,
        -255.036835,
        101.122665,
        993.952942,
        1
      ],
      "children": [
        7
      ]
    },
    {
      "name": "mesh3",
      "mesh": 3
    },
    {
      "children": [
        9
      ]
    },
    {
      "name": "mesh4",
      "mesh": 4
    },
    {
      "children": [
        11
      ]
    },
    {
      "matrix": [
        2.220446049250313e-16,
        0,
        -1,
        0,
        0,
        1,
        0,
        0,
        1,
        0,
        2.220446049250313e-16,
        0,
        -636.667114,
        295.58667,
        993.921509,
        1
      ],
      "children": [
        10,
        12
      ]
    },
    {
      "matrix": [
        1,
        0,
        0,
        0,
        0,
        1,
        0,
        0,
        0,
        0,
        1,
        0,
        1,
        1,
        1,
        1
      ],
      "children": [
        2,
        5,
        8,
        13
      ]
    },
    {
      "children": [
        14
      ]
    }
  ],
  "bufferViews": [
    {
      "buffer": 0,
      "byteOffset": 0,
      "byteLength": 76008,
      "target": 34962,
      "byteStride": 12
    },
    {
      "buffer": 0,
      "byteOffset": 76008,
      "byteLength": 151800,
      "target": 34963
    },
    {
      "buffer": 0,
      "byteOffset": 227808,
      "byteLength": 1368,
      "target": 34962,
      "byteStride": 12
    },
    {
      "buffer": 0,
      "byteOffset": 229176,
      "byteLength": 2640,
      "target": 34963
    },
    {
      "buffer": 0,
      "byteOffset": 231816,
      "byteLength": 1824,
      "target": 34962,
      "byteStride": 12
    },
    {
      "buffer": 0,
      "byteOffset": 233640,
      "byteLength": 3792,
      "target": 34963
    },
    {
      "buffer": 0,
      "byteOffset": 237432,
      "byteLength": 4524,
      "target": 34962,
      "byteStride": 12
    },
    {
      "buffer": 0,
      "byteOffset": 241956,
      "byteLength": 9000,
      "target": 34963
    },
    {
      "buffer": 0,
      "byteOffset": 250956,
      "byteLength": 104472,
      "target": 34962,
      "byteStride": 12
    },
    {
      "buffer": 0,
      "byteOffset": 355428,
      "byteLength": 209184,
      "target": 34963
    }
  ],
  "buffers": [
    {
      "byteLength": 564612,
      "uri": "data:application/octet-stream;base64,"
    }
  ],
  "accessors": [
    {
      "bufferView": 0,
      "componentType": 5126,
      "count": 6334,
      "max": [
        157,
        160,
        20
      ],
      "min": [
        -157,
        -142,
        -615
      ],
      "type": "VEC3"
    },
    {
      "bufferView": 1,
      "componentType": 5125,
      "count": 37950,
      "max": [
        6333
      ],
      "min": [
        0
      ],
      "type": "SCALAR"
    },
    {
      "bufferView": 2,
      "componentType": 5126,
      "count": 114,
      "max": [
        85,
        234.83230590820312,
        210
      ],
      "min": [
        -85,
        -9.184851738495894e-15,
        0
      ],
      "type": "VEC3"
    },
    {
      "bufferView": 3,
      "componentType": 5125,
      "count": 660,
      "max": [
        113
      ],
      "min": [
        0
      ],
      "type": "SCALAR"
    },
    {
      "bufferView": 4,
      "componentType": 5126,
      "count": 152,
      "max": [
        195,
        57.5,
        525
      ],
      "min": [
        -195,
        -57.5,
        -525
      ],
      "type": "VEC3"
    },
    {
      "bufferView": 5,
      "componentType": 5125,
      "count": 948,
      "max": [
        151
      ],
      "min": [
        0
      ],
      "type": "SCALAR"
    },
    {
      "bufferView": 6,
      "componentType": 5126,
      "count": 377,
      "max": [
        66.76107788085938,
        66.75626373291016,
        -81.15670776367188
      ],
      "min": [
        50.56517028808594,
        50.555259704589844,
        -98.33827209472656
      ],
      "type": "VEC3"
    },
    {
      "bufferView": 7,
      "componentType": 5125,
      "count": 2250,
      "max": [
        376
      ],
      "min": [
        0
      ],
      "type": "SCALAR"
    },
    {
      "bufferView": 8,
      "componentType": 5126,
      "count": 8706,
      "max": [
        134.66259765625,
        184.80299377441406,
        276.63031005859375
      ],
      "min": [
        -134.72369384765625,
        -136.96400451660156,
        -228.3701934814453
      ],
      "type": "VEC3"
    },
    {
      "bufferView": 9,
      "componentType": 5125,
      "count": 52296,
      "max": [
        8705
      ],
      "min": [
        0
      ],
      "type": "SCALAR"
    }
  ],
  "materials": [
    {
      "pbrMetallicRoughness": {
        "metallicFactor": 0.5,
        "roughnessFactor": 0.5
      }
    },
    {
      "pbrMetallicRoughness": {
        "metallicFactor": 0.5,
        "roughnessFactor": 0.5
      }
    },
    {
      "pbrMetallicRoughness": {
        "metallicFactor": 0.5,
        "roughnessFactor": 0.5
      }
    },
    {
      "pbrMetallicRoughness": {
        "metallicFactor": 0.5,
        "roughnessFactor": 0.5
      }
    },
    {
      "pbrMetallicRoughness": {
        "metallicFactor": 0.5,
        "roughnessFactor": 0.5
      }
    }
  ],
  "meshes": [
    {
      "primitives": [
        {
          "mode": 4,
          "attributes": {
            "POSITION": 0
          },
          "indices": 1,
          "material": 0
        }
      ]
    },
    {
      "primitives": [
        {
          "mode": 4,
          "attributes": {
            "POSITION": 2
          },
          "indices": 3,
          "material": 1
        }
      ]
    },
    {
      "primitives": [
        {
          "mode": 4,
          "attributes": {
            "POSITION": 4
          },
          "indices": 5,
          "material": 2
        }
      ]
    },
    {
      "primitives": [
        {
          "mode": 4,
          "attributes": {
            "POSITION": 6
          },
          "indices": 7,
          "material": 3
        }
      ]
    },
    {
      "primitives": [
        {
          "mode": 4,
          "attributes": {
            "POSITION": 8
          },
          "indices": 9,
          "material": 4
        }
      ]
    }
  ]
}